<?xml version="1.0" encoding="UTF-8"?>
<svg width="188px" height="175px" viewBox="0 0 188 175" version="1.1" xmlns="http://www.w3.org/2000/svg" xmlns:xlink="http://www.w3.org/1999/xlink">
    <!-- Generator: Sketch 39.1 (31720) - http://www.bohemiancoding.com/sketch -->
    <title>admire</title>
    <desc>Created with Sketch.</desc>
    <defs></defs>
    <g id="Page-1" stroke="none" stroke-width="1" fill="none" fill-rule="evenodd">
        <path d="M181.7577,107.873847 L160.070604,70.3133135 C158.143111,66.7589234 155.160933,63.8373043 151.516404,61.9697703 C148.745083,60.5239506 145.582427,59.710702 142.239094,59.710702 C131.064271,59.710702 121.967838,68.8073344 121.967838,80.0121375 C121.967838,82.8132383 122.54005,85.464241 123.564156,87.9037869 C123.624515,88.0243053 123.684674,88.1748031 123.744833,88.2953215 C126.395436,93.7776045 127.871435,99.9218387 127.871435,106.398048 C127.871435,129.440625 109.166517,148.145543 86.1239402,148.145543 C63.7141342,148.145543 45.3705711,130.434551 44.4368041,108.235402 C44.5873021,102.391764 45.5210689,96.7595826 47.1475662,91.4281973 C55.1897137,64.9819279 79.7382697,45.7347773 108.804963,45.7347773 C111.8471,45.7347773 114.829078,45.9454346 117.750697,46.3675482 C118.232771,46.4576871 118.714644,46.5480258 119.226497,46.5782055 C119.70857,46.6381648 120.220623,46.6683443 120.732476,46.6683443 C129.753559,46.6683443 135.582008,40.5003262 135.582008,31.8190121 C135.582008,29.4092459 135.009796,27.119998 133.95551,25.1021662 C133.684294,24.5299541 133.353119,23.9877219 132.991564,23.4452896 L132.53987,22.632041 C115.461249,-6.97668418 72.7198281,-6.97668418 55.6112277,22.632041 L6.39419668,107.873847 C-10.684424,137.482773 10.6712969,174.501074 44.858318,174.501074 L143.293179,174.501074 C177.4806,174.501074 198.866301,137.482972 181.7577,107.873847 L181.7577,107.873847 Z" id="admire" fill="#000000"></path>
    </g>
</svg>