<?xml version="1.0" encoding="UTF-8"?>
<svg width="150px" height="150px" viewBox="0 0 150 150" version="1.1" xmlns="http://www.w3.org/2000/svg" xmlns:xlink="http://www.w3.org/1999/xlink">
    <!-- Generator: Sketch 39.1 (31720) - http://www.bohemiancoding.com/sketch -->
    <title>dribbble</title>
    <desc>Created with Sketch.</desc>
    <defs></defs>
    <g id="Page-1" stroke="none" stroke-width="1" fill="none" fill-rule="evenodd">
        <path d="M75,0 C33.59375,0 0,33.59375 0,75 C0,116.445313 33.59375,150 75,150 C116.40625,150 150,116.445313 150,75 C150,33.59375 116.40625,0 75,0 L75,0 Z M75,137.304688 C40.5859375,137.304688 12.6953125,109.414063 12.6953125,75 C12.6953125,40.5859375 40.5859375,12.6953125 75,12.6953125 C109.414063,12.6953125 137.304688,40.5859375 137.304688,75 C137.304688,109.414063 109.414063,137.304688 75,137.304688 L75,137.304688 Z M94.6484375,71.3671875 C103.789062,70.5078125 114.53125,70.234375 124.804688,70.4296875 C123.90625,60.5078125 120.117188,51.40625 114.257812,44.0234375 C107.8125,49.84375 99.4140625,55 89.53125,59.2578125 C91.328125,63.1640625 93.0078125,67.2265625 94.6484375,71.3671875 L94.6484375,71.3671875 Z M106.015625,35.78125 C97.5,29.0234375 86.71875,25 75,25 C73.0078125,25 71.015625,25.1171875 69.0625,25.3515625 C74.453125,32.265625 79.4921875,40.0390625 84.140625,48.59375 C92.6171875,45 100,40.6640625 106.015625,35.78125 L106.015625,35.78125 Z M55.4296875,28.984375 C42.109375,34.6484375 31.71875,45.9375 27.3046875,59.8828125 C43.359375,59.609375 58.3984375,57.1484375 71.6015625,53.125 C66.6796875,44.140625 61.2109375,36.0546875 55.4296875,28.984375 L55.4296875,28.984375 Z M124.609375,81.328125 C115.898438,81.09375 106.640625,81.25 98.4765625,81.9140625 C100.078125,86.71875 101.640625,91.640625 102.96875,96.71875 C104.453125,102.421875 105.703125,108.085937 106.71875,113.671875 C116.328125,105.742187 122.96875,94.296875 124.609375,81.328125 L124.609375,81.328125 Z M75.78125,75.0390625 C77.3046875,74.4140625 79.21875,73.8671875 81.3671875,73.359375 C80.0390625,70.1171875 78.59375,66.953125 77.1484375,63.8671875 C61.875,68.7890625 44.1015625,71.796875 25.078125,72.1875 C25.0390625,73.125 25,74.0625 25,75.0390625 C25,86.40625 28.7890625,96.875 35.15625,105.273438 C44.8828125,92.578125 58.9453125,82.109375 75.78125,75.0390625 L75.78125,75.0390625 Z M85.390625,83.671875 C82.6953125,84.2578125 80.3515625,84.921875 78.59375,85.7421875 C64.1015625,92.3046875 51.9140625,101.992188 43.28125,113.671875 C51.9140625,120.78125 62.96875,125 75,125 C82.2265625,125 89.0625,123.476562 95.234375,120.742188 C94.1796875,114.84375 92.890625,108.90625 91.328125,102.890625 C89.609375,96.2890625 87.578125,89.84375 85.390625,83.671875 L85.390625,83.671875 Z" id="dribbble" fill="#000000"></path>
    </g>
</svg>