<?xml version="1.0" encoding="UTF-8"?>
<svg width="51px" height="106px" viewBox="0 0 51 106" version="1.1" xmlns="http://www.w3.org/2000/svg" xmlns:xlink="http://www.w3.org/1999/xlink">
    <!-- Generator: Sketch 39.1 (31720) - http://www.bohemiancoding.com/sketch -->
    <title>iPhone Front</title>
    <desc>Created with Sketch.</desc>
    <defs></defs>
    <g id="Page-1" stroke="none" stroke-width="1" fill="none" fill-rule="evenodd">
        <g id="Apple-Device-Wireframes" transform="translate(-51.000000, -165.000000)" fill="#000000">
            <path d="M55,179.4 L55.4,179 L55.4,259 L55,258.6 L100,258.6 L99.6,259 L99.6,179 L100,179.4 L55,179.4 Z M100,179 L100,259 L55,259 L55,179 L100,179 Z M68,174 C68.5522847,174 69,173.552285 69,173 C69,172.447715 68.5522847,172 68,172 C67.4477153,172 67,172.447715 67,173 C67,173.552285 67.4477153,174 68,174 Z M76.5,171 C76.7761424,171 77,170.776142 77,170.5 C77,170.223858 76.7761424,170 76.5,170 C76.2238576,170 76,170.223858 76,170.5 C76,170.776142 76.2238576,171 76.5,171 Z M72,173.5 C72,173.223858 72.2224731,173 72.5096658,173 L80.4903342,173 C80.7718148,173 81,173.231934 81,173.5 L81,173.5 C81,173.776142 80.7775269,174 80.4903342,174 L72.5096658,174 C72.2281852,174 72,173.768066 72,173.5 L72,173.5 Z M80.5,264.5 C80.5,262.290861 78.709139,260.5 76.5,260.5 C74.290861,260.5 72.5,262.290861 72.5,264.5 C72.5,266.709139 74.290861,268.5 76.5,268.5 C78.709139,268.5 80.5,266.709139 80.5,264.5 Z M73.5,264.5 C73.5,262.843146 74.8431458,261.5 76.5,261.5 C78.1568542,261.5 79.5,262.843146 79.5,264.5 C79.5,266.156854 78.1568542,267.5 76.5,267.5 C74.8431458,267.5 73.5,266.156854 73.5,264.5 Z M53,263.000193 C53,266.86216 56.1385226,270 60.0056329,270 L93.9943671,270 C97.8689918,270 101,266.868992 101,263.000193 L101,172.999807 C101,169.13784 97.8614774,166 93.9943671,166 L60.0056329,166 C56.1310082,166 53,169.131008 53,172.999807 L53,263.000193 Z M60.0056329,165 L93.9943671,165 C98.415756,165 102,168.587548 102,172.999807 L102,263.000193 C102,267.418364 98.424189,271 93.9943671,271 L60.0056329,271 C55.584244,271 52,267.412452 52,263.000193 L52,172.999807 C52,168.581636 55.575811,165 60.0056329,165 Z M51,179.490479 C51,179.219595 51.2319336,179 51.5,179 L52,179 L52,183 L51.5,183 C51.2238576,183 51,182.784943 51,182.509521 L51,179.490479 L51,179.490479 L51,179.490479 Z M51,188.500436 C51,188.224053 51.2319336,188 51.5,188 L52,188 L52,196 L51.5,196 C51.2238576,196 51,195.769203 51,195.499564 L51,188.500436 L51,188.500436 L51,188.500436 Z M51,198.500436 C51,198.224053 51.2319336,198 51.5,198 L52,198 L52,206 L51.5,206 C51.2238576,206 51,205.769203 51,205.499564 L51,198.500436 L51,198.500436 L51,198.500436 Z" id="iPhone-Front"></path>
        </g>
    </g>
</svg>