<?xml version="1.0" encoding="UTF-8"?>
<svg width="180px" height="46px" viewBox="0 0 180 46" version="1.1" xmlns="http://www.w3.org/2000/svg" xmlns:xlink="http://www.w3.org/1999/xlink">
    <!-- Generator: Sketch 39.1 (31720) - http://www.bohemiancoding.com/sketch -->
    <title>WantLine</title>
    <desc>Created with Sketch.</desc>
    <defs></defs>
    <g id="Page-1" stroke="none" stroke-width="1" fill="none" fill-rule="evenodd">
        <path d="M158.18498,30.3216384 C157.95097,30.6984396 157.768217,30.9657369 157.636719,31.1235352 C156.003898,32.9604584 154.937014,34.1015603 154.436035,34.546875 C154.380371,34.5839846 154.102053,34.7602523 153.601074,35.0756836 L153.350586,35.1591797 C153.165038,35.214844 153.016602,35.2612303 152.905273,35.2983398 C152.497068,35.4653329 151.717779,35.5673826 150.567383,35.6044922 L149.98291,35.6044922 C149.147945,35.6044922 148.526369,35.5395514 148.118164,35.409668 C145.706043,34.6118124 144.472168,32.598649 144.416504,29.3701172 C144.490723,28.3681591 144.527832,27.6445335 144.527832,27.1992188 C144.67627,26.5126919 144.750488,25.9467796 144.750488,25.5014648 C144.731934,25.4829101 144.722656,25.4550783 144.722656,25.4179688 C144.722656,24.9355445 144.657715,24.5922862 144.527832,24.3881836 C144.360839,24.1284167 144.091799,24.1933574 143.720703,24.5830078 C143.646484,24.7128913 143.549073,24.8474114 143.428467,24.9865723 C143.307861,25.1257331 143.168702,25.2834464 143.010986,25.4597168 C142.853271,25.6359872 142.737305,25.7612301 142.663086,25.8354492 C142.551757,25.9467779 142.199222,26.3225066 141.605469,26.9626465 C141.011716,27.6027864 140.584962,28.0991193 140.325195,28.4516602 C139.935545,28.9897488 139.341801,29.6577109 138.543945,30.4555664 C138.17285,30.826662 137.848146,31.2626928 137.569824,31.7636719 C137.161619,32.4130892 136.901856,32.7934565 136.790527,32.9047852 C136.53076,33.090333 136.373047,33.275878 136.317383,33.4614258 C136.11328,33.6655284 135.783938,34.4726492 135.329346,35.8828125 C134.874754,37.2929758 134.58252,38.0815421 134.452637,38.2485352 C134.211425,38.4897473 133.960939,38.6103516 133.701172,38.6103516 C133.534179,38.6103516 133.265139,38.7031241 132.894043,38.8886719 C132.708495,39.0371101 132.513673,39.1113281 132.30957,39.1113281 C132.216796,39.1113281 132.114747,39.0927736 132.003418,39.0556641 C131.81787,38.9999997 131.618409,38.9628907 131.405029,38.9443359 C131.191649,38.9257812 130.959718,38.9165039 130.709229,38.9165039 C130.458739,38.9165039 130.259278,38.9072267 130.11084,38.8886719 C129.962402,38.8515623 129.744386,38.8144533 129.456787,38.7773438 C129.169188,38.7402342 129.006836,38.7216797 128.969727,38.7216797 C128.524412,38.5732414 128.190431,38.2856467 127.967773,37.8588867 C127.83789,37.6176746 127.772949,37.339357 127.772949,37.0239258 C127.772949,36.7827136 127.791504,36.5507824 127.828613,36.328125 C128.057922,35.2649687 128.280723,34.3059083 128.497018,33.4509406 C128.432785,33.4938616 128.367698,33.534466 128.301758,33.5727539 C128.134765,33.7954113 127.8147,34.1108378 127.341553,34.519043 C126.868406,34.9272481 126.274662,35.3586403 125.560303,35.8132324 C124.845944,36.2678245 124.126957,36.5878897 123.40332,36.7734375 C123.050779,36.8662114 122.707521,36.9218749 122.373535,36.9404297 C122.020994,36.9404297 121.677736,36.8847662 121.34375,36.7734375 C121.232421,36.8105471 121.121094,36.8291016 121.009766,36.8291016 C120.879882,36.8291016 120.740723,36.8105471 120.592285,36.7734375 C120.332518,36.6992184 120.040285,36.555421 119.715576,36.342041 C119.390868,36.128661 119.135743,35.9848637 118.950195,35.9106445 C118.412107,35.6879872 117.864749,35.2705109 117.308105,34.6582031 C116.918455,33.6005806 116.723633,32.8398461 116.723633,32.3759766 C116.649414,32.1533192 116.612305,31.8193382 116.612305,31.3740234 C116.667969,31.1699209 116.714355,30.7524446 116.751465,30.121582 C116.788574,29.4907195 116.844238,29.0917977 116.918457,28.9248047 C117.029786,28.3681613 117.085449,28.062012 117.085449,28.0063477 L117.168945,27.8115234 C117.22461,27.68164 117.326659,27.607422 117.475098,27.5888672 C117.493652,27.5888672 117.512207,27.5703127 117.530762,27.5332031 C117.549316,27.4960936 117.567871,27.4543459 117.586426,27.407959 C117.604981,27.361572 117.623535,27.3291017 117.64209,27.3105469 C117.734864,27.1806634 117.841552,26.9904798 117.962158,26.7399902 C118.082764,26.4895007 118.189453,26.2993171 118.282227,26.1694336 C118.282227,26.1694336 118.078127,26.3457014 117.669922,26.6982422 C117.465819,26.7910161 117.493651,26.6333028 117.753418,26.2250977 C117.920411,25.8168925 118.245115,25.2463416 118.727539,24.5134277 C119.209963,23.7805139 119.497558,23.2934582 119.590332,23.0522461 L119.70166,22.7460938 C119.905763,22.3193338 119.979981,22.0039073 119.924316,21.7998047 C119.868652,21.5957021 119.924316,21.3266618 120.091309,20.9926758 C120.221192,21.0668949 120.332519,21.0854494 120.425293,21.0483398 C120.443848,21.0483398 120.47168,21.0297853 120.508789,20.9926758 C120.638673,20.8256828 120.787109,20.686524 120.954102,20.5751953 C121.10254,20.5566405 121.366941,20.4545908 121.747314,20.269043 C122.127687,20.0834952 122.484862,19.9350592 122.818848,19.8237305 C123.152834,19.7124018 123.403319,19.7031245 123.570312,19.7958984 C123.625977,19.8701176 123.78369,19.9907218 124.043457,20.1577148 C124.303224,20.3247079 124.470214,20.4453121 124.544434,20.5195313 C124.785646,20.8164077 124.822755,21.2431613 124.655762,21.7998047 C124.544433,22.0595716 124.349611,22.4399389 124.071289,22.940918 C123.792967,23.441897 123.588868,23.8315416 123.458984,24.1098633 C123.291991,24.6108423 123.199219,24.8984371 123.180664,24.9726563 C123.162109,25.0097658 123.06006,25.255613 122.874512,25.7102051 C122.688964,26.1647972 122.540528,26.4941396 122.429199,26.6982422 C122.373535,26.8652352 122.392089,26.8745125 122.484863,26.7260742 C122.521973,26.6518551 122.596191,26.5219736 122.70752,26.3364258 C122.948732,25.9096658 123.08789,25.6962891 123.125,25.6962891 C123.143555,25.6777343 123.143555,25.705566 123.125,25.7797852 C123.125,25.8540043 123.069336,26.0024403 122.958008,26.2250977 C122.883789,26.3920907 122.809571,26.5683584 122.735352,26.7539063 C122.661132,26.9394541 122.614746,27.0600583 122.596191,27.1157227 C122.577637,27.171387 122.554443,27.2548823 122.526611,27.3662109 C122.498779,27.4775396 122.480225,27.584228 122.470947,27.6862793 C122.46167,27.7883306 122.447754,27.9506825 122.429199,28.1733398 C122.429199,28.2661137 122.39209,28.9062441 122.317871,30.09375 C122.280762,30.7802769 122.262207,31.2998029 122.262207,31.6523438 L122.262207,31.9584961 L122.262207,32.1533203 C122.299317,32.3759777 122.447753,32.6635725 122.70752,33.0161133 C122.763184,33.0346681 122.842041,33.0764157 122.944092,33.1413574 C123.046143,33.2062992 123.152831,33.2666013 123.26416,33.3222656 C123.375489,33.37793 123.477539,33.4243162 123.570312,33.4614258 C123.718751,33.5727545 124.0249,33.591309 124.48877,33.5170898 C125.602056,33.1088847 126.446286,32.7238788 127.021484,32.3620605 C127.596683,32.0002423 127.958495,31.6755385 128.106934,31.3879395 C128.255372,31.1003404 128.510496,30.6596709 128.872314,30.065918 C129.224132,29.4885766 129.668045,28.9112436 130.204066,28.3339027 C130.40276,27.8801677 130.622173,27.4091672 130.862305,26.9208984 C131.493167,25.3066326 132.114743,23.8779359 132.727051,22.6347656 C133.042482,22.0595674 133.710444,20.8999111 134.730957,19.1557617 C135.36182,18.0239201 135.723632,17.3466808 135.816406,17.1240234 C136.113283,16.5859348 136.317382,16.0664088 136.428711,15.5654297 C136.428711,15.5097653 136.437988,15.4448246 136.456543,15.3706055 C136.475098,15.2963863 136.484375,15.2314456 136.484375,15.1757812 C136.632813,15.0830073 136.762695,15.0366211 136.874023,15.0366211 C137.003907,15.0366211 137.105957,15.1015619 137.180176,15.2314453 C137.588381,15.7509792 138.09863,16.0942374 138.710938,16.2612305 C138.803711,16.2612305 138.896484,16.354003 138.989258,16.5395508 C139.211915,16.7993177 139.49951,17.179685 139.852051,17.6806641 C140.074708,18.0146501 140.148926,18.5620079 140.074707,19.3227539 C140.019043,21.2338963 139.434576,23.367664 138.321289,25.7241211 C138.228515,25.9096689 138.149659,26.0859367 138.084717,26.2529297 C138.019775,26.4199227 137.978027,26.5358883 137.959473,26.6008301 C137.940918,26.6657718 137.889893,26.7631829 137.806396,26.8930664 C137.7229,27.0229499 137.606934,27.1992176 137.458496,27.421875 C137.013181,28.1269567 136.948241,28.6372055 137.263672,28.9526367 C137.44922,29.1196297 137.690428,29.128907 137.987305,28.9804688 C138.525393,28.4609349 139.304682,27.6167051 140.325195,26.4477539 C140.826174,25.8354462 141.410641,25.2045931 142.078613,24.5551758 C142.746585,23.9057585 143.219725,23.4233414 143.498047,23.1079102 C143.999026,22.6069311 144.360839,22.2265638 144.583496,21.9667969 C144.843263,21.5214821 145.242185,21.2338874 145.780273,21.1040039 L146.364746,21.1040039 C146.605958,21.1411135 146.953855,21.1689452 147.408447,21.1875 C147.863039,21.2060548 148.210936,21.2338865 148.452148,21.2709961 C148.860354,21.36377 149.203612,21.6513648 149.481934,22.1337891 C149.630372,22.3750012 149.70459,22.662596 149.70459,22.996582 C149.778809,23.5161159 149.811279,23.9660626 149.802002,24.3464355 C149.792725,24.7268085 149.760254,25.0468737 149.70459,25.3066406 C149.407713,26.7168039 149.203614,27.6538063 149.092285,28.1176758 C148.925292,28.6743192 148.813965,29.4628855 148.758301,30.4833984 C148.721191,31.0029323 148.702637,31.4575176 148.702637,31.847168 C148.702637,32.2368184 148.721191,32.5707994 148.758301,32.8491211 C148.776856,33.1645524 148.89746,33.4011223 149.120117,33.5588379 C149.342775,33.7165535 149.597899,33.7954102 149.885498,33.7954102 C150.173097,33.7954102 150.442137,33.7675784 150.692627,33.7119141 C150.943116,33.6562497 151.151855,33.591309 151.318848,33.5170898 C151.393067,33.4985351 151.522948,33.4382329 151.708496,33.3361816 C151.894044,33.2341303 152.051757,33.164551 152.181641,33.1274414 C152.793948,32.737791 153.56396,32.1626015 154.491699,31.4018555 C155.419438,30.6411095 156.068846,30.0195337 156.439941,29.5371094 C156.495606,29.4628903 156.85278,29.1613796 157.511475,28.6325684 C157.76526,28.4288254 157.975663,28.2574467 158.142685,28.1184319 C158.281864,26.8100739 158.66057,25.5017242 159.278809,24.1933594 C159.390137,23.970702 159.427246,23.6831072 159.390137,23.3305664 C159.09326,23.4975594 158.907715,23.701659 158.833496,23.9428711 C158.685058,24.369631 158.453127,24.8706026 158.137695,25.4458008 C158.137695,25.260253 158.276854,24.8427767 158.555176,24.1933594 C159.0376,23.0615178 159.566403,22.0874064 160.141602,21.2709961 C160.772464,20.2875927 161.477535,19.4155311 162.256836,18.6547852 C163.147465,17.7084914 164.000972,16.9848658 164.817383,16.4838867 L165.374023,16.2055664 C165.522462,16.1499021 165.652343,16.1220703 165.763672,16.1220703 C165.930665,16.1220703 166.051269,16.1870111 166.125488,16.3168945 C166.181153,16.3725589 166.269287,16.4143065 166.389893,16.4421387 C166.510499,16.4699708 166.589355,16.5024412 166.626465,16.5395508 C166.682129,16.5766603 166.751709,16.655517 166.835205,16.776123 C166.918702,16.8967291 166.969726,16.9663085 166.988281,16.9848633 C167.136719,17.0590824 167.665523,17.2446274 168.574707,17.5415039 C169.483891,17.8383804 170.031249,18.0517572 170.216797,18.1816406 C170.34668,18.2558597 170.485839,18.450682 170.634277,18.7661133 C170.689942,18.8403324 170.759521,18.9655753 170.843018,19.1418457 C170.926514,19.3181161 170.996093,19.4572749 171.051758,19.5593262 C171.107422,19.6613775 171.177002,19.7727045 171.260498,19.8933105 C171.343995,20.0139166 171.432128,20.1113278 171.524902,20.1855469 C171.599121,20.259766 171.682617,20.4360338 171.775391,20.7143555 C171.84961,21.1040059 171.88208,21.4658186 171.872803,21.7998047 C171.863525,22.1337907 171.831055,22.4492173 171.775391,22.7460938 C171.682617,23.3584015 171.395022,24.1005816 170.912598,24.9726562 C170.541502,25.6220736 170.328125,26.0209954 170.272461,26.1694336 C170.216797,26.392091 170.031252,26.7724582 169.71582,27.3105469 C169.493163,27.7558616 169.149905,28.0434564 168.686035,28.1733398 C168.333494,28.3403329 167.971682,28.3959964 167.600586,28.340332 C167.563476,28.3217773 167.521729,28.3125 167.475342,28.3125 C167.428955,28.3125 167.387207,28.3078614 167.350098,28.298584 C167.312988,28.2893066 167.275879,28.2707521 167.23877,28.2429199 C167.20166,28.2150878 167.173828,28.1733401 167.155273,28.1176758 L167.099609,28.0620117 C166.932616,28.0805665 166.71924,27.9831554 166.459473,27.7697754 C166.199706,27.5563954 166.05127,27.4404298 166.01416,27.421875 C165.939941,27.3476559 165.902832,27.2548834 165.902832,27.1435547 C165.939942,27.0507808 165.921387,26.8837903 165.847168,26.6425781 C165.438963,25.8261678 165.188477,25.3437507 165.095703,25.1953125 C165.021484,24.9726551 164.891602,24.9541006 164.706055,25.1396484 C164.6875,25.2138676 164.631836,25.3437491 164.539062,25.5292969 C164.446289,25.7148447 164.399902,25.8725579 164.399902,26.0024414 C164.399902,26.1137701 164.325684,26.2065426 164.177246,26.2807617 C164.065917,26.3920904 164.010254,26.4941402 164.010254,26.5869141 C163.973144,26.7539071 163.880372,26.8652341 163.731934,26.9208984 C163.657714,26.958008 163.602051,27.106444 163.564941,27.3662109 C163.67627,27.3662109 163.750488,27.3847654 163.787598,27.421875 L163.787598,27.4775391 L163.397949,27.4775391 C163.435059,27.3662104 163.453613,27.2177744 163.453613,27.0322266 L163.342285,27.0322266 C163.32373,27.16211 163.29126,27.3615709 163.244873,27.6306152 C163.198486,27.8996595 163.166016,28.0991204 163.147461,28.2290039 C163.295899,28.303223 163.379394,28.340332 163.397949,28.340332 C163.435059,28.600099 163.453613,28.9804662 163.453613,29.4814453 C163.453613,29.7968766 163.527831,30.1401349 163.67627,30.5112305 C163.731934,30.5854496 163.866454,30.8684057 164.079834,31.3601074 C164.293214,31.8518091 164.427734,32.1347653 164.483398,32.2089844 C164.501953,32.2275392 164.590087,32.315673 164.747803,32.4733887 C164.905518,32.6311043 165.00293,32.7285154 165.040039,32.765625 C165.077149,32.8027346 165.169921,32.8908684 165.318359,33.0300293 C165.466798,33.1691901 165.573486,33.2619627 165.638428,33.3083496 C165.703369,33.3547366 165.800781,33.4335932 165.930664,33.5449219 C166.060548,33.6562506 166.167236,33.7304686 166.250732,33.7675781 C166.334229,33.8046877 166.43164,33.8557126 166.542969,33.9206543 C166.654297,33.985596 166.760986,34.0319823 166.863037,34.0598145 C166.965088,34.0876466 167.0625,34.1015625 167.155273,34.1015625 C167.210938,34.1201173 167.275879,34.1293945 167.350098,34.1293945 C167.721193,34.1293945 168.398433,34.0273448 169.381836,33.8232422 C170.643561,33.4521466 171.951653,32.7470755 173.306152,31.7080078 C173.677248,31.4111313 174.192135,30.9797392 174.85083,30.4138184 C175.509525,29.8478976 175.940917,29.4814461 176.14502,29.3144531 L176.312012,29.1474609 C176.42334,29.0175775 176.59497,28.8273938 176.826904,28.5769043 C177.058839,28.3264148 177.230468,28.1362311 177.341797,28.0063477 C178.121098,27.2270469 178.696287,26.5590848 179.067383,26.0024414 C179.308595,25.612791 179.531249,25.3808597 179.735352,25.3066406 C179.586913,25.9746127 179.438477,26.4570298 179.290039,26.7539062 C179.234375,26.9208993 179.141602,27.0693353 179.011719,27.1992188 C178.584959,27.7001978 178.297364,28.0991196 178.148926,28.3959961 C178.093261,28.4702152 178.000489,28.5861809 177.870605,28.7438965 C177.740722,28.9016121 177.647949,29.0175778 177.592285,29.0917969 C177.536621,29.1474612 177.453126,29.2587882 177.341797,29.4257812 C177.397461,29.4072265 177.476318,29.3793947 177.578369,29.3422852 C177.68042,29.3051756 177.759277,29.2773438 177.814941,29.2587891 C177.796387,29.3701177 177.726807,29.4860834 177.606201,29.6066895 C177.485595,29.7272955 177.416016,29.8339839 177.397461,29.9267578 C177.416016,29.9453126 177.43457,29.9685057 177.453125,29.9963379 C177.47168,30.0241701 177.490234,30.0473632 177.508789,30.065918 C177.527344,30.0844727 177.555176,30.1030273 177.592285,30.121582 C177.518066,30.2700203 177.323244,30.4926743 177.007812,30.7895508 C176.655272,31.0864273 176.330568,31.411131 176.033691,31.7636719 C175.681151,32.1533223 175.133793,32.6450166 174.391602,33.2387695 C173.872068,33.6469747 173.603027,33.8603515 173.584473,33.8789062 C173.510254,33.9345706 173.398927,34.0087886 173.250488,34.1015625 C173.10205,34.1943364 172.990723,34.2685544 172.916504,34.3242188 C172.508299,34.5283213 172.16504,34.7231436 171.886719,34.9086914 C171.255856,35.279787 170.643558,35.5209955 170.049805,35.6323242 L169.548828,35.7993164 C168.843746,36.0219738 168.15723,36.1611325 167.489258,36.2167969 C167.415039,36.2353517 167.322266,36.2446289 167.210938,36.2446289 C166.784178,36.2446289 166.069829,36.1518564 165.067871,35.9663086 C163.843256,35.7436512 163.01758,35.5581062 162.59082,35.409668 C161.997067,35.1684558 161.510012,34.9086928 161.129639,34.6303711 C160.749266,34.3520494 160.382814,34.0180684 160.030273,33.628418 C159.677733,33.2387676 159.427247,32.9790046 159.278809,32.8491211 C158.926268,32.5522446 158.657227,32.1533228 158.47168,31.6523438 C158.353551,31.3215827 158.257985,30.8780163 158.18498,30.3216384 Z M81.2093093,31.4367793 C79.7333539,33.0907537 78.7594589,34.1274428 78.2875977,34.546875 C78.2319333,34.5839846 77.9536158,34.7602523 77.4526367,35.0756836 L77.2021484,35.1591797 C77.0166006,35.214844 76.8681646,35.2612303 76.7568359,35.2983398 C76.3486308,35.4653329 75.5693417,35.5673826 74.4189453,35.6044922 L73.8344727,35.6044922 C72.9995075,35.6044922 72.3779317,35.5395514 71.9697266,35.409668 C69.5576051,34.6118124 68.3237307,32.598649 68.2680664,29.3701172 C68.3422855,28.3681591 68.3793945,27.6445335 68.3793945,27.1992188 C68.5278328,26.5126919 68.6020508,25.9467796 68.6020508,25.5014648 C68.583496,25.4829101 68.5742188,25.4550783 68.5742188,25.4179688 C68.5742188,24.9355445 68.509278,24.5922862 68.3793945,24.3881836 C68.2124015,24.1284167 67.9433612,24.1933574 67.5722656,24.5830078 C67.4980465,24.7128913 67.4006354,24.8474114 67.2800293,24.9865723 C67.1594232,25.1257331 67.0202645,25.2834464 66.8625488,25.4597168 C66.7048332,25.6359872 66.5888676,25.7612301 66.5146484,25.8354492 C66.4033198,25.9467779 66.0507842,26.3225066 65.4570312,26.9626465 C64.8632783,27.6027864 64.4365247,28.0991193 64.1767578,28.4516602 C63.7871074,28.9897488 63.1933634,29.6577109 62.3955078,30.4555664 C62.0244122,30.826662 61.6997084,31.2626928 61.4213867,31.7636719 C61.0131816,32.4130892 60.7534185,32.7934565 60.6420898,32.9047852 C60.3823229,33.090333 60.2246097,33.275878 60.1689453,33.4614258 C59.9648427,33.6655284 59.6355003,34.4726492 59.1809082,35.8828125 C58.7263161,37.2929758 58.4340827,38.0815421 58.3041992,38.2485352 C58.0629871,38.4897473 57.8125013,38.6103516 57.5527344,38.6103516 C57.3857414,38.6103516 57.1167011,38.7031241 56.7456055,38.8886719 C56.5600577,39.0371101 56.3652354,39.1113281 56.1611328,39.1113281 C56.0683589,39.1113281 55.9663092,39.0927736 55.8549805,39.0556641 C55.6694327,38.9999997 55.4699718,38.9628907 55.2565918,38.9443359 C55.0432118,38.9257812 54.8112805,38.9165039 54.560791,38.9165039 C54.3103015,38.9165039 54.1108406,38.9072267 53.9624023,38.8886719 C53.8139641,38.8515623 53.5959487,38.8144533 53.3083496,38.7773438 C53.0207505,38.7402342 52.8583986,38.7216797 52.8212891,38.7216797 C52.3759743,38.5732414 52.0419933,38.2856467 51.8193359,37.8588867 C51.6894525,37.6176746 51.6245117,37.339357 51.6245117,37.0239258 C51.6245117,36.7827136 51.6430662,36.5507824 51.6801758,36.328125 C52.1478228,34.1599432 52.5884071,32.4247048 53.0019362,31.1223818 C52.7317978,31.3656309 52.5602557,31.5237287 52.4873047,31.5966797 C52.1904282,31.8378918 51.8286154,32.0234369 51.4018555,32.1533203 C51.3090816,32.1718751 51.0910662,32.2089841 50.7478027,32.2646484 C50.4045393,32.3203128 50.1494149,32.3759763 49.9824219,32.4316406 C49.8339836,32.5058597 49.5927751,32.5708005 49.2587891,32.6264648 C48.924803,32.6821292 48.7299807,32.7192382 48.6743164,32.737793 L48.1733398,32.737793 C47.1342721,32.4038069 46.4848646,32.1347666 46.2250977,31.9306641 C46.1879881,31.8935545 46.0952156,31.837891 45.9467773,31.7636719 C45.3159148,31.4853502 44.8613295,31.1606464 44.5830078,30.7895508 C44.1005835,31.0307629 43.7016617,31.2812487 43.3862305,31.5410156 C43.1450183,31.6523443 42.9316416,31.7822258 42.7460938,31.9306641 L42.6347656,31.9863281 C42.5605465,32.0976568 42.4631354,32.1904293 42.3425293,32.2646484 C42.2219232,32.3388676 42.1291507,32.3945311 42.064209,32.4316406 C41.9992673,32.4687502 41.878663,32.5151364 41.7023926,32.5708008 C41.5261222,32.6264651 41.4194338,32.6635741 41.3823242,32.6821289 C41.0297834,32.7749028 40.6865251,32.8212891 40.3525391,32.8212891 C39.8886696,32.8212891 39.4526388,32.7192393 39.0444336,32.5151367 C38.8032215,32.3666985 38.5156267,32.2275397 38.1816406,32.0976562 C36.5302652,31.3925746 35.6210946,30.1587002 35.4541016,28.3959961 C35.4355468,28.2104483 35.4262695,28.0249033 35.4262695,27.8393555 C35.4262695,27.1528286 35.5839828,26.4848665 35.8994141,25.8354492 C36.3447288,24.9819293 36.8085913,24.2768583 37.2910156,23.7202148 C37.2910156,23.6831053 37.3281246,23.6274418 37.4023438,23.5532227 C37.9404324,22.7182575 38.775385,21.6328192 39.9072266,20.296875 C40.5566439,19.5917933 41.2802694,19.0073265 42.078125,18.543457 C42.2265632,18.4692379 42.3935538,18.4321289 42.5791016,18.4321289 C43.0244163,18.3579098 43.3862291,18.3208008 43.6645508,18.3208008 L43.831543,18.3208008 C43.9614264,18.3764651 44.1701646,18.4321286 44.4577637,18.487793 C44.7453628,18.5434573 44.9355464,18.5805663 45.0283203,18.5991211 C45.1767586,18.6733402 45.2880856,18.7104492 45.3623047,18.7104492 C45.7334003,18.7846683 45.9467771,18.8774408 46.0024414,18.9887695 L46.1137695,19.0444336 C46.2065434,19.0444336 46.3410636,19.0908198 46.517334,19.1835938 C46.6936044,19.2763677 46.8281245,19.3227539 46.9208984,19.3227539 C47.0136723,19.3227539 47.1064448,19.3691402 47.1992188,19.4619141 C47.2734379,19.5361332 47.3847649,19.6381829 47.5332031,19.7680664 C47.6816414,19.8979499 47.8068843,20.0185541 47.9089355,20.1298828 C48.0109868,20.2412115 48.0991207,20.3525385 48.1733398,20.4638672 C48.1918946,20.5195315 48.2197264,20.5983882 48.2568359,20.7004395 C48.2939455,20.8024907 48.3217773,20.8813474 48.340332,20.9370117 C48.4516607,21.4379908 48.2753929,21.8183581 47.8115234,22.078125 C47.4960922,22.2265632 47.0229524,22.5327125 46.3920898,22.996582 L46.3920898,23.0522461 C46.2622064,23.1821296 46.0581069,23.3723132 45.7797852,23.6228027 C45.5014635,23.8732923 45.2602549,24.1052235 45.0561523,24.3186035 C44.8520498,24.5319835 44.675782,24.7499989 44.5273438,24.9726562 C44.3789055,25.1582041 44.1469742,25.4086898 43.831543,25.7241211 C43.5161117,26.0766619 43.0615264,26.6796832 42.4677734,27.5332031 C42.4121091,27.625977 42.2172868,27.8950173 41.8833008,28.340332 C41.8090817,28.4145512 41.7348637,28.5258782 41.6606445,28.6743164 C41.3266585,29.3237337 41.1040045,29.9545868 40.9926758,30.5668945 L40.9926758,30.7895508 C41.0668949,30.7524412 41.1411129,30.6967777 41.215332,30.6225586 C41.9204137,29.9174769 42.5419895,29.3701191 43.0800781,28.9804688 C43.4697285,28.6464827 43.7573233,28.3217789 43.9428711,28.0063477 C44.0170902,27.895019 44.1748035,27.7187512 44.4160156,27.4775391 C44.8242208,27.0136696 45.1396473,26.5961933 45.3623047,26.2250977 C45.4365238,26.0952142 45.6174302,25.8076194 45.9050293,25.3623047 C46.1926284,24.91699 46.4106438,24.5644544 46.559082,24.3046875 C47.1157254,24.2490232 47.5332017,24.3789047 47.8115234,24.6943359 C47.848633,24.7314455 47.9089351,24.787109 47.9924316,24.8613281 C48.0759282,24.9355472 48.1362303,24.9912108 48.1733398,25.0283203 C48.4331068,25.3623064 48.6000973,25.9189414 48.6743164,26.6982422 C48.6743164,26.7353517 48.6372074,26.8281243 48.5629883,26.9765625 C48.3588857,27.4218772 48.0898454,27.9506805 47.7558594,28.5629883 C47.5888664,28.9526387 47.5332028,29.3515605 47.5888672,29.7597656 C47.7001959,30.2421899 47.8764636,30.7153297 48.1176758,31.1791992 C48.2475592,31.3833018 48.4145498,31.4853516 48.6186523,31.4853516 C49.1010766,31.4111324 49.4999984,31.3090827 49.8154297,31.1791992 C50.4834018,30.8452132 50.8452146,30.6596682 50.9008789,30.6225586 C51.2905293,30.3999012 51.7080056,30.1494155 52.1533203,29.8710938 C52.2460942,29.7783198 52.3991689,29.6484383 52.6125488,29.4814453 C52.8259288,29.3144523 52.9790034,29.1845708 53.0717773,29.0917969 C53.3129895,28.83203 53.7443817,28.2661176 54.3659668,27.394043 C54.4914482,27.2179944 54.6095568,27.0548009 54.7202927,26.9044623 C55.3489504,25.2969331 55.9683845,23.873715 56.5786133,22.6347656 C56.8940445,22.0595674 57.5620066,20.8999111 58.5825195,19.1557617 C59.2133821,18.0239201 59.5751948,17.3466808 59.6679688,17.1240234 C59.9648452,16.5859348 60.1689448,16.0664088 60.2802734,15.5654297 C60.2802734,15.5097653 60.2895507,15.4448246 60.3081055,15.3706055 C60.3266602,15.2963863 60.3359375,15.2314456 60.3359375,15.1757812 C60.4843757,15.0830073 60.6142573,15.0366211 60.7255859,15.0366211 C60.8554694,15.0366211 60.9575192,15.1015619 61.0317383,15.2314453 C61.4399434,15.7509792 61.9501923,16.0942374 62.5625,16.2612305 C62.6552739,16.2612305 62.7480464,16.354003 62.8408203,16.5395508 C63.0634777,16.7993177 63.3510725,17.179685 63.7036133,17.6806641 C63.9262706,18.0146501 64.0004887,18.5620079 63.9262695,19.3227539 C63.8706052,21.2338963 63.2861384,23.367664 62.1728516,25.7241211 C62.0800777,25.9096689 62.001221,26.0859367 61.9362793,26.2529297 C61.8713376,26.4199227 61.8295899,26.5358883 61.8110352,26.6008301 C61.7924804,26.6657718 61.7414555,26.7631829 61.657959,26.8930664 C61.5744625,27.0229499 61.4584968,27.1992176 61.3100586,27.421875 C60.8647439,28.1269567 60.7998031,28.6372055 61.1152344,28.9526367 C61.3007822,29.1196297 61.5419907,29.128907 61.8388672,28.9804688 C62.3769558,28.4609349 63.1562449,27.6167051 64.1767578,26.4477539 C64.6777369,25.8354462 65.2622037,25.2045931 65.9301758,24.5551758 C66.5981479,23.9057585 67.0712877,23.4233414 67.3496094,23.1079102 C67.8505884,22.6069311 68.2124012,22.2265638 68.4350586,21.9667969 C68.6948255,21.5214821 69.0937473,21.2338874 69.6318359,21.1040039 L70.2163086,21.1040039 C70.4575207,21.1411135 70.8054176,21.1689452 71.2600098,21.1875 C71.7146019,21.2060548 72.0624988,21.2338865 72.3037109,21.2709961 C72.7119161,21.36377 73.0551744,21.6513648 73.3334961,22.1337891 C73.4819343,22.3750012 73.5561523,22.662596 73.5561523,22.996582 C73.6303715,23.5161159 73.6628418,23.9660626 73.6535645,24.3464355 C73.6442871,24.7268085 73.6118167,25.0468737 73.5561523,25.3066406 C73.2592759,26.7168039 73.0551763,27.6538063 72.9438477,28.1176758 C72.7768546,28.6743192 72.6655276,29.4628855 72.6098633,30.4833984 C72.5727537,31.0029323 72.5541992,31.4575176 72.5541992,31.847168 C72.5541992,32.2368184 72.5727537,32.5707994 72.6098633,32.8491211 C72.6284181,33.1645524 72.7490223,33.4011223 72.9716797,33.5588379 C73.1943371,33.7165535 73.4494615,33.7954102 73.7370605,33.7954102 C74.0246596,33.7954102 74.2936999,33.7675784 74.5441895,33.7119141 C74.794679,33.6562497 75.0034171,33.591309 75.1704102,33.5170898 C75.2446293,33.4985351 75.3745108,33.4382329 75.5600586,33.3361816 C75.7456064,33.2341303 75.9033197,33.164551 76.0332031,33.1274414 C76.6455109,32.737791 77.4155227,32.1626015 78.3432617,31.4018555 C79.2710007,30.6411095 79.9204083,30.0195337 80.2915039,29.5371094 C80.3471682,29.4628903 80.7043424,29.1613796 81.3630371,28.6325684 C81.5258647,28.5018476 81.6708343,28.3844496 81.7979461,28.280374 C81.9039808,27.9169715 82.0929939,27.2921876 82.3649902,26.4060059 C82.6525893,25.4689895 82.8891592,24.7036162 83.074707,24.1098633 C83.1118166,23.9799798 83.1582028,23.7944348 83.2138672,23.5532227 C83.2695315,23.3120105 83.3159178,23.1264655 83.3530273,22.996582 C83.3530273,22.9409177 83.4736316,22.5605504 83.7148438,21.8554688 C83.9375011,21.0019489 84.1044916,20.3896503 84.2158203,20.0185547 C84.2529299,19.8144521 84.3410638,19.5407732 84.4802246,19.1975098 C84.6193855,18.8542463 84.7446283,18.5388198 84.855957,18.2512207 C84.9672857,17.9636216 85.0600582,17.6760268 85.1342773,17.3884277 C85.2084965,17.1008286 85.2038578,16.8642587 85.1203613,16.6787109 C85.0368648,16.4931631 84.8652357,16.3725589 84.6054688,16.3168945 C84.5498044,16.3168945 84.4570319,16.3076173 84.3271484,16.2890625 C84.197265,16.2705077 84.0998538,16.2565918 84.0349121,16.2473145 C83.9699704,16.2380371 83.8864751,16.2194826 83.7844238,16.1916504 C83.6823725,16.1638182 83.5942387,16.1127933 83.5200195,16.0385742 C83.4086908,15.9643551 83.2417003,15.8576667 83.019043,15.7185059 C82.7963856,15.579345 82.6293951,15.4726566 82.5180664,15.3984375 C82.295409,15.1757801 82.1748048,15.0087896 82.15625,14.8974609 C82.3046882,14.8232418 82.406738,14.7861328 82.4624023,14.7861328 C82.7221693,14.7304685 83.1118138,14.6423346 83.6313477,14.5217285 C84.1508815,14.4011224 84.540526,14.3129886 84.800293,14.2573242 C85.1157242,14.1831051 85.663082,14.1088871 86.4423828,14.034668 C86.7207045,13.9604488 86.9062495,13.8120128 86.9990234,13.5893555 C87.036133,13.4965816 87.1335441,13.2878434 87.2912598,12.9631348 C87.4489754,12.6384261 87.5463865,12.3833017 87.5834961,12.1977539 C87.6948248,11.9936513 87.926756,11.501957 88.2792969,10.7226562 C88.6318377,9.94335548 88.9287097,9.35888867 89.1699219,8.96923828 C89.7636748,8.00438971 90.3945279,7.20654612 91.0625,6.57568359 C91.1738287,6.40869057 91.3037102,6.2509773 91.4521484,6.10253906 C91.7119154,5.89843648 91.9624011,5.82421847 92.2036133,5.87988281 C92.2407228,5.93554715 92.412352,5.94018578 92.7185059,5.89379883 C93.0246597,5.84741188 93.2148434,5.82421875 93.2890625,5.82421875 C93.3261721,5.82421875 93.3632811,5.80566425 93.4003906,5.76855469 C93.5302741,5.74999991 93.6508783,5.74072266 93.762207,5.74072266 C93.9477548,5.74072266 94.1054681,5.77783166 94.2353516,5.85205078 C94.4208994,5.98193424 94.5786126,6.22314277 94.7084961,6.57568359 C94.968263,7.09521744 95.0981445,7.69823875 95.0981445,8.38476562 C95.0981445,8.62597777 95.1352535,8.93212705 95.2094727,9.30322266 C95.265137,9.5444348 95.265137,9.81347508 95.2094727,10.1103516 C95.1352535,10.4814472 95.07959,10.7783192 95.0424805,11.0009766 C95.0053709,11.1494148 94.9497074,11.3813461 94.8754883,11.6967773 C94.8012692,12.0122086 94.7456057,12.2441399 94.7084961,12.3925781 C94.7084961,12.5781259 94.6899416,12.7265619 94.652832,12.8378906 C94.7641607,12.9121097 94.9497057,12.9492188 95.2094727,12.9492188 C95.4506848,12.930664 95.807859,12.9028322 96.2810059,12.8657227 C96.7541528,12.8286131 97.1020497,12.8007813 97.324707,12.7822266 L100.302734,12.7822266 C100.432618,12.7822266 100.632079,12.8100583 100.901123,12.8657227 C101.170167,12.921387 101.332519,12.9492188 101.388184,12.9492188 C101.276855,13.1162118 101.19336,13.2275388 101.137695,13.2832031 C100.989257,13.4316414 100.859376,13.5336911 100.748047,13.5893555 C100.618163,13.6450198 100.409425,13.7377923 100.121826,13.8676758 C99.8342271,13.9975592 99.6254889,14.0903318 99.4956055,14.1459961 L99.4399414,14.2016602 C99.3100579,14.2202149 99.0085473,14.2758784 98.5354004,14.3686523 C98.0622535,14.4614262 97.6958021,14.4985352 97.4360352,14.4799805 C97.1020491,14.4799805 96.7031273,14.5449212 96.2392578,14.6748047 C96.1464839,14.7119142 96.0073251,14.7490233 95.8217773,14.7861328 C95.6362295,14.8232424 95.5341798,14.8417969 95.515625,14.8417969 L94.1796875,15.0087891 C94.0126945,15.0458986 93.8642585,15.1943346 93.734375,15.4541016 C93.7158202,15.4726563 93.6972657,15.5004881 93.6787109,15.5375977 C93.6601562,15.5747072 93.6416017,15.602539 93.6230469,15.6210938 C93.36328,16.363285 92.9550809,17.3791439 92.3984375,18.6687012 C91.8417941,19.9582584 91.4707041,20.8256814 91.2851562,21.2709961 C91.1552728,21.530763 91.0625003,21.7441398 91.0068359,21.9111328 C90.6542951,22.6162145 90.4223638,23.1821268 90.3110352,23.6088867 C90.1625969,24.0542014 89.9213884,24.5458957 89.5874023,25.0839844 C89.5131832,25.1953131 89.4389652,25.4040512 89.3647461,25.7102051 C89.290527,26.016359 89.2070317,26.2436516 89.1142578,26.3920898 C88.7802718,27.1157263 88.4741225,28.3496007 88.1958008,30.09375 C87.9731434,31.5595776 87.8618164,32.7841748 87.8618164,33.7675781 L87.8618164,34.3242188 C87.898926,34.9921908 88.0937482,35.8642524 88.4462891,36.9404297 C88.4648438,36.9775392 88.6318344,37.2094705 88.9472656,37.6362305 C88.9658204,37.6362305 88.9982908,37.6455077 89.0446777,37.6640625 C89.0910647,37.6826173 89.1328123,37.6918945 89.1699219,37.6918945 C90.2646539,37.6918945 90.9511705,37.599122 91.2294922,37.4135742 C91.6376974,37.1352525 92.4355409,36.5043994 93.6230469,35.5209961 C95.4043058,33.7397372 96.5268531,32.3759813 96.9907227,31.4296875 C97.1577157,31.1142562 97.3757311,30.5900916 97.6447754,29.8571777 C97.9138197,29.1242639 98.1318351,28.6000992 98.2988281,28.284668 C98.391602,28.0620106 98.5817857,27.6306184 98.8693848,26.9904785 C99.1569839,26.3503386 99.328613,25.9653327 99.3842773,25.8354492 C99.4770512,25.854004 99.61621,25.8447267 99.8017578,25.8076172 C99.9316413,25.7890624 99.996582,25.7983397 99.996582,25.8354492 C99.996582,25.9467779 99.9733889,26.0534663 99.927002,26.1555176 C99.880615,26.2575689 99.8666991,26.35498 99.8852539,26.4477539 C99.9038087,26.5405278 99.8156748,26.8745088 99.6208496,27.449707 C99.4260244,28.0249052 99.2915043,28.3959953 99.2172852,28.5629883 C99.1059565,28.8784195 98.9250501,29.3422821 98.6745605,29.9545898 C98.424071,30.5668976 98.2431646,31.0214829 98.1318359,31.3183594 C97.9462881,31.689455 97.6726092,32.1997038 97.310791,32.8491211 C96.9489728,33.4985384 96.7031256,33.9531237 96.5732422,34.2128906 C96.4619135,34.4169932 95.9377488,35.112787 95.0007324,36.300293 C94.063716,37.4877989 93.5302741,38.1372065 93.4003906,38.2485352 C93.1406237,38.4155282 92.6860384,38.8283658 92.0366211,39.4870605 C91.3872038,40.1457552 90.951173,40.5493157 90.7285156,40.6977539 C90.5058583,40.8276374 90.0698275,41.0131824 89.4204102,41.2543945 C88.7709928,41.4956067 88.3442393,41.6347654 88.1401367,41.671875 C87.7319316,41.7089846 87.3701188,41.7275391 87.0546875,41.7275391 C86.5722632,41.7275391 86.1918959,41.6904301 85.9135742,41.6162109 C85.338376,41.5419918 84.6843298,41.1662632 83.951416,40.4890137 C83.2185022,39.8117642 82.7036148,39.1669952 82.4067383,38.5546875 C81.9057592,37.664058 81.6367189,37.144532 81.5996094,36.9960938 C81.3583972,36.1425739 81.200684,35.2148488 81.1264648,34.2128906 C81.1264648,33.2665968 81.1450193,32.4687532 81.1821289,31.8193359 C81.1894055,31.6919951 81.1984656,31.5644762 81.2093093,31.4367793 Z M0.775390625,35.7158203 C0.775390625,34.7138622 0.895994888,33.7397508 1.13720703,32.793457 C1.26709049,32.2739232 1.50366039,31.4575251 1.84692383,30.3442383 C2.19018726,29.2309515 2.42675716,28.3959989 2.55664062,27.8393555 C2.72363365,27.2641573 2.98339667,26.3410708 3.3359375,25.0700684 C3.68847833,23.7990659 4.00854348,22.6765185 4.29614258,21.7023926 C4.58374167,20.7282666 4.88525233,19.8051801 5.20068359,18.9331055 C5.34912184,18.4877907 5.47900335,18.0007351 5.59033203,17.4719238 C5.70166071,16.9431126 5.81762635,16.3586458 5.93823242,15.7185059 C6.05883849,15.0783659 6.15624963,14.5913103 6.23046875,14.2573242 C6.52734523,12.8286061 6.67578125,11.6689498 6.67578125,10.7783203 L6.67578125,10.5 C6.67578125,10.3886713 6.69433575,10.2958988 6.73144531,10.2216797 C7.47363652,10.0732414 8.03954883,9.99902344 8.42919922,9.99902344 C8.94873307,9.9433591 9.23632785,10.1474586 9.29199219,10.6113281 C9.29199219,10.871095 9.34765569,11.0844718 9.45898438,11.2514648 C9.58886784,11.5854509 9.65380859,12.0122044 9.65380859,12.5317383 C9.65380859,12.977053 9.60742234,13.4780246 9.51464844,14.034668 C9.31054585,14.962407 9.01367382,16.5024306 8.62402344,18.6547852 C8.51269476,19.1557642 8.28076348,20.5009656 7.92822266,22.6904297 C7.92822266,22.746094 7.87255915,23.4697196 7.76123047,24.8613281 C7.76123047,25.4365263 7.74267597,25.8911116 7.70556641,26.2250977 C7.48290904,27.7836992 7.37158203,29.0361281 7.37158203,29.9824219 C7.39013681,30.6875035 7.45507757,31.2163068 7.56640625,31.5688477 C7.71484449,32.0141624 7.92822126,32.2368164 8.20654297,32.2368164 C8.46630989,32.2182616 8.79101368,32.0234394 9.18066406,31.6523438 C9.97851961,30.873043 10.9247992,29.4072373 12.0195312,27.2548828 C12.3164077,26.8281229 12.5668935,26.5590826 12.7709961,26.4477539 C12.8823248,26.3735348 13.0122063,26.2250988 13.1606445,26.0024414 C13.2534184,25.7612293 13.420409,25.4226096 13.6616211,24.9865723 C13.9028332,24.5505349 14.0605465,24.239747 14.1347656,24.0541992 C15.1552785,22.0502829 15.8974586,20.4731503 16.3613281,19.3227539 C17.214848,17.3188376 17.7065423,15.9921907 17.8364258,15.3427734 C17.9663092,14.8046848 18.3095675,14.1367227 18.8662109,13.3388672 C18.9775396,13.1347646 19.3393524,12.9492196 19.9516602,12.7822266 C20.2856462,12.7265622 20.5129389,12.6987305 20.6335449,12.6987305 C20.754151,12.6987305 20.9536119,12.7265622 21.2319336,12.7822266 C21.5102553,12.8378909 21.7143548,12.8749999 21.8442383,12.8935547 C22.0483409,12.9121095 22.3220198,12.9770502 22.6652832,13.0883789 C23.0085466,13.1997076 23.2080075,13.2646483 23.2636719,13.2832031 C23.4863292,13.3388675 23.6533198,13.3852537 23.7646484,13.4223633 C23.8759771,13.4594728 23.9919428,13.5383295 24.1125488,13.6589355 C24.2331549,13.7795416 24.293457,13.9418935 24.293457,14.1459961 C24.2563475,14.4243178 24.3676745,14.7304671 24.6274414,15.0644531 C24.7387701,15.1757818 24.7387701,15.4448221 24.6274414,15.871582 C24.6274414,15.9272464 24.6135255,16.006103 24.5856934,16.1081543 C24.5578612,16.2102056 24.5485839,16.2890622 24.5578613,16.3447266 C24.5671387,16.4003909 24.6088863,16.4467772 24.6831055,16.4838867 C24.7758794,16.5209963 24.7758794,16.6323233 24.6831055,16.8178711 C24.6274411,16.9663093 24.5485845,17.2214337 24.4465332,17.583252 C24.3444819,17.9450702 24.2424322,18.2651353 24.1403809,18.543457 C24.0383296,18.8217787 23.9130867,19.0815418 23.7646484,19.3227539 C23.4306624,19.8608425 23.2080084,20.3989231 23.0966797,20.9370117 C22.9296867,21.6235386 22.4565469,23.0244035 21.6772461,25.1396484 C20.9350549,27.4033316 20.4897468,29.0639596 20.3413086,30.121582 C19.8959939,32.0141696 19.6733398,33.3872028 19.6733398,34.2407227 C19.6733398,34.9458043 19.8217759,35.2983398 20.1186523,35.2983398 C20.1557619,35.2983398 20.2021482,35.2890626 20.2578125,35.2705078 C21.0371133,35.0664052 22.3173739,33.3779456 24.0986328,30.2050781 C24.9707075,28.6650314 25.6757786,27.2641665 26.2138672,26.0024414 C26.3251959,25.7426745 26.496825,25.3669458 26.7287598,24.8752441 C26.9606945,24.3835425 27.1323237,23.9985365 27.2436523,23.7202148 L28.746582,19.7958984 C29.6001019,17.0126814 30.0732417,15.222172 30.1660156,14.4243164 C30.5371112,12.012195 30.7226562,9.9248135 30.7226562,8.16210938 C30.7041015,7.82812333 30.685547,7.34106765 30.6669922,6.70092773 C30.6484374,6.06078781 30.6298829,5.58300939 30.6113281,5.26757812 C30.6113281,4.95214686 30.5556646,4.62744308 30.4443359,4.29345703 C30.184569,3.95947099 29.8969742,3.83886672 29.581543,3.93164062 C29.1176735,4.00585975 28.8115242,3.82031473 28.6630859,3.375 C28.4218738,2.81835659 28.2734378,2.4379893 28.2177734,2.23388672 C28.1806639,2.14111282 28.1992184,1.9741223 28.2734375,1.73291016 C28.2919923,1.67724582 28.3847648,1.48242354 28.5517578,1.1484375 C28.6630865,1.09277316 28.9135723,1.00000065 29.3032227,0.870117188 C29.5444348,0.962891089 29.9108862,1.08813398 30.4025879,1.24584961 C30.8942896,1.40356524 31.2700182,1.52880813 31.5297852,1.62158203 C32.1792025,1.77002027 32.6523423,1.9926743 32.9492188,2.28955078 C33.097657,2.3637699 33.2275385,2.41943341 33.3388672,2.45654297 C33.5986341,2.54931687 33.7563474,2.78124814 33.8120117,3.15234375 C33.8305665,3.28222721 33.997557,3.606931 34.3129883,4.12646484 C34.5542004,4.49756045 34.8417952,4.77587798 35.1757812,4.96142578 C35.2314456,4.97998056 35.3056636,5.13769383 35.3984375,5.43457031 C35.5468757,5.93554938 35.741698,6.26025316 35.9829102,6.40869141 C36.3540058,6.59423921 36.4467783,6.9746065 36.2612305,7.54980469 C36.2055661,7.79101683 36.2612296,7.99511635 36.4282227,8.16210938 C36.65088,8.44043108 36.762207,8.76513486 36.762207,9.13623047 C36.7436523,9.24755915 36.771484,9.42382692 36.8457031,9.66503906 C36.9013675,9.83203208 36.9384765,9.9804681 36.9570312,10.1103516 C36.9570312,10.1660159 36.947754,10.2216794 36.9291992,10.2773438 C36.8920897,10.3515629 36.8642579,10.4628899 36.8457031,10.6113281 C36.8271483,10.7597664 36.7993166,10.8710934 36.762207,10.9453125 C36.6879879,11.2236342 36.6879879,11.4184565 36.762207,11.5297852 C36.8364262,11.6782234 36.8549807,11.7895504 36.8178711,11.8637695 C36.743652,11.9750982 36.7019043,12.0817866 36.692627,12.1838379 C36.6833496,12.2858892 36.6926268,12.3879389 36.720459,12.4899902 C36.7482912,12.5920415 36.762207,12.6708982 36.762207,12.7265625 C36.7993166,12.8378912 36.8178711,13.2182585 36.8178711,13.8676758 C36.8178711,14.3315453 36.7993166,14.6562491 36.762207,14.8417969 C36.762207,15.4912142 36.725098,15.964354 36.6508789,16.2612305 C36.6137693,16.4096687 36.5209968,16.6972635 36.3725586,17.1240234 C36.2241204,17.5507834 36.1313478,17.8847644 36.0942383,18.1259766 C36.0385739,18.2373052 35.9829104,18.376464 35.9272461,18.543457 C35.7973626,18.7661144 35.6860356,19.0026843 35.5932617,19.2531738 C35.5004878,19.5036634 35.4077153,19.7912581 35.3149414,20.1159668 C35.2221675,20.4406755 35.1386722,20.7143544 35.0644531,20.9370117 C35.0273436,20.8071283 34.9809573,20.6262219 34.925293,20.3942871 C34.8696286,20.1623524 34.8232424,19.981446 34.7861328,19.8515625 C34.7490233,19.8886721 34.7072756,19.9350583 34.6608887,19.9907227 C34.6145017,20.046387 34.5727541,20.0927733 34.5356445,20.1298828 C34.498535,20.1669924 34.4799805,20.2041014 34.4799805,20.2412109 C34.4428709,20.6123065 34.3686529,20.9973125 34.2573242,21.3962402 C34.1459955,21.795168 33.9743664,22.2822237 33.7424316,22.8574219 C33.5104969,23.4326201 33.3574222,23.8129874 33.2832031,23.9985352 C33.2832031,24.1284186 33.2275396,24.2490229 33.1162109,24.3603516 C32.9492179,24.4345707 32.8146978,24.5366204 32.7126465,24.6665039 C32.6105952,24.7963874 32.5456544,24.8984371 32.5178223,24.9726563 C32.4899901,25.0468754 32.4528811,25.1860341 32.4064941,25.3901367 C32.3601072,25.5942393 32.3369141,25.7055663 32.3369141,25.7241211 C32.2255854,26.1694358 31.9936541,26.5498031 31.6411133,26.8652344 C31.158689,27.3476587 30.8710942,27.7836895 30.7783203,28.1733398 C30.7783203,28.2104494 30.6669933,28.4980442 30.4443359,29.0361328 C29.7763638,30.1308648 29.4145511,30.7338862 29.3588867,30.8452148 C27.985833,33.0346789 27.2250984,34.2314443 27.0766602,34.4355469 C26.1489211,35.7343815 25.0634828,37.1259691 23.8203125,38.6103516 C23.1152308,39.5380906 22.30811,40.0019531 21.3989258,40.0019531 C21.3061519,40.0019531 21.2041021,39.9926759 21.0927734,39.9741211 C20.8701161,39.9741211 20.7031256,39.9926756 20.5917969,40.0297852 C20.4248039,40.0483399 20.2670906,40.0576172 20.1186523,40.0576172 C19.729002,40.0576172 19.3857437,39.9926764 19.0888672,39.862793 C17.8456969,39.3061496 17.0478533,38.7866235 16.6953125,38.3041992 C16.4726551,38.0815419 16.2871101,37.7475608 16.1386719,37.3022461 C16.045898,34.9272342 15.97168,33.6191418 15.9160156,33.3779297 C15.7861322,32.7099576 15.4892601,32.5151353 15.0253906,32.793457 C14.5244116,33.1088883 13.4668049,34.2685447 11.8525391,36.2724609 C11.7226556,36.3652348 11.5463878,36.5090322 11.3237305,36.7038574 C11.1010731,36.8986826 10.9340826,37.0332028 10.8227539,37.1074219 C9.83935055,37.9238322 8.47559466,38.5917943 6.73144531,39.1113281 L6.28613281,39.1113281 C5.97070155,39.1298829 5.50220037,39.1484374 4.88061523,39.1669922 C4.2590301,39.185547 3.79052892,39.2041015 3.47509766,39.2226562 L3.14111328,39.2226562 C2.47314119,39.2226562 1.94433789,39.0742202 1.5546875,38.7773438 C1.22070146,38.5732412 1.02587918,38.2856464 0.970214844,37.9145508 C0.840331382,37.1723596 0.775390625,36.4394567 0.775390625,35.7158203 Z M29.0249023,20.6586914 L29.2475586,20.6586914 C29.9340855,19.007316 30.4814433,16.7993302 30.8896484,14.034668 C30.7412102,14.3315445 30.6066901,14.7536594 30.486084,15.3010254 C30.3654779,15.8483914 30.2958985,16.1684566 30.2773438,16.2612305 C30.1845698,16.4838878 29.9526386,17.2260679 29.581543,18.487793 C29.5073238,18.7475599 29.4145513,19.1093727 29.3032227,19.5732422 C29.191894,20.0371117 29.0991215,20.3989245 29.0249023,20.6586914 Z M31.3071289,11.0009766 C31.3442385,10.963867 31.4184565,10.9453125 31.5297852,10.9453125 C31.6225591,10.8525386 31.6782226,10.7644047 31.6967773,10.6809082 C31.7153321,10.5974117 31.7199707,10.4768074 31.7106934,10.3190918 C31.701416,10.1613762 31.6967773,10.0732423 31.6967773,10.0546875 C31.6967773,9.9619136 31.7060546,9.80883896 31.7246094,9.59545898 C31.7431642,9.38207901 31.7524414,9.22900437 31.7524414,9.13623047 C31.7524414,9.04345657 31.7431642,8.89965918 31.7246094,8.70483398 C31.7060546,8.51000879 31.6967773,8.3662114 31.6967773,8.2734375 L31.6411133,8.2734375 C31.6040037,8.64453311 31.5437016,9.15478191 31.4602051,9.80419922 C31.3767086,10.4536165 31.3256837,10.8525383 31.3071289,11.0009766 Z M88.2236328,23.1357422 C88.2236328,23.2841804 88.2607418,23.3583984 88.3349609,23.3583984 C88.3720705,23.3583984 88.4184568,23.3212894 88.4741211,23.2470703 C88.8823263,22.8017556 89.4018523,21.744149 90.0327148,20.0742187 C90.3295913,19.2392536 90.7099586,18.3486375 91.1738281,17.4023437 C91.3222664,17.0126934 91.4289548,16.683351 91.4938965,16.4143066 C91.5588382,16.1452623 91.5681155,15.9226083 91.5217285,15.7463379 C91.4753416,15.5700675 91.3269055,15.5051267 91.076416,15.5515137 C90.8259265,15.5979006 90.4780296,15.7602525 90.0327148,16.0385742 C89.7915027,16.7622106 89.527101,17.6899357 89.239502,18.8217773 C88.9519029,19.9536189 88.7617192,20.6772445 88.6689453,20.9926758 C88.3720688,22.0874078 88.2236328,22.8017561 88.2236328,23.1357422 Z M90.8676758,12.3925781 C90.8676758,12.7265642 90.9604483,12.9677727 91.1459961,13.1162109 C91.2944343,13.2460944 91.4521476,13.3203124 91.6191406,13.3388672 C91.6376954,13.3388672 91.6562499,13.3295899 91.6748047,13.3110352 L91.7583008,13.3110352 C91.8325199,13.3110352 91.9067379,13.3017579 91.980957,13.2832031 C92.2778335,13.1718744 92.481933,12.9492204 92.5932617,12.6152344 C92.7231452,12.0029266 92.8344722,11.4091826 92.9272461,10.8339844 C92.9458009,10.77832 92.968994,10.6994634 92.9968262,10.5974121 C93.0246583,10.4953608 93.0478515,10.3979497 93.0664062,10.3051758 C93.084961,10.2124019 93.1035155,10.1289066 93.1220703,10.0546875 C93.1406251,9.90624926 93.1777341,9.67431798 93.2333984,9.35888672 C93.2890628,9.04345545 93.3261718,8.81152418 93.3447266,8.66308594 C93.3632813,8.55175726 93.3725586,8.42187574 93.3725586,8.2734375 C93.3725586,7.97656102 93.3447268,7.59619373 93.2890625,7.13232422 C93.2705077,7.03955032 93.2241215,6.97460956 93.1499023,6.9375 C93.1127928,6.9375 93.084961,6.92822275 93.0664062,6.90966797 C93.0107419,6.90966797 92.9643557,6.92822247 92.9272461,6.96533203 C92.6674792,7.15087983 92.5004887,7.3457021 92.4262695,7.54980469 C92.1108383,8.16211244 91.916016,8.65380674 91.8417969,9.02490234 C91.8232421,9.08056668 91.7861331,9.16406194 91.7304688,9.27539062 C91.6748044,9.38671931 91.6376954,9.47021457 91.6191406,9.52587891 C91.5078119,9.74853627 91.3964849,9.99902205 91.2851562,10.2773438 C91.0996084,11.186528 90.9697269,11.7895493 90.8955078,12.0864258 C90.876953,12.1977545 90.8676758,12.2998042 90.8676758,12.3925781 Z M95.8217773,41.7275391 C95.9145512,41.1708957 95.9331057,40.8276374 95.8774414,40.6977539 C95.8403318,40.5493157 95.8774408,40.396241 95.9887695,40.2385254 C96.1000982,40.0808098 96.2578115,39.9926759 96.4619141,39.9741211 C96.9443383,39.5844707 97.2736808,39.2829601 97.4499512,39.0695801 C97.6262216,38.8562001 97.8349597,38.4387238 98.0761719,37.8171387 C98.317384,37.1955535 98.5957015,36.2260808 98.9111328,34.9086914 C99.0224615,34.519041 99.26367,33.6284249 99.6347656,32.2368164 C100.005861,30.8452079 100.312011,29.7597695 100.553223,28.9804688 C101.425297,25.9560396 102.241695,23.2934685 103.002441,20.9926758 C103.354982,20.0092724 103.948726,18.0424952 104.783691,15.0922852 C105.618657,12.1420751 106.203123,10.1752979 106.537109,9.19189453 C106.629883,8.93212761 106.782958,8.55639894 106.996338,8.06469727 C107.209718,7.57299559 107.362793,7.20654417 107.455566,6.96533203 C107.622559,6.66845555 107.766357,6.4782719 107.886963,6.39477539 C108.007569,6.31127888 108.188475,6.26953125 108.429688,6.26953125 C108.652345,6.26953125 109.069821,5.97729784 109.682129,5.39282227 C110.294437,4.80834669 110.711913,4.51611328 110.93457,4.51611328 C111.992193,4.62744196 112.604491,5.19335427 112.771484,6.21386719 C112.864258,6.65918191 112.845704,7.21581697 112.71582,7.88378906 C112.641601,8.36621335 112.456056,9.26146807 112.15918,10.5695801 C111.862303,11.8776921 111.523684,13.3017501 111.143311,14.8417969 C110.762938,16.3818436 110.544922,17.2910142 110.489258,17.5693359 C110.192381,18.8681706 109.431647,21.9667724 108.207031,26.8652344 C108.095703,27.2734395 107.896242,27.9274857 107.608643,28.8273926 C107.321043,29.7272994 107.121583,30.4184546 107.010254,30.9008789 C106.694823,31.902837 106.532471,32.7099579 106.523193,33.3222656 C106.513916,33.9345734 106.606688,34.3752428 106.801514,34.6442871 C106.996339,34.9133314 107.334959,35.0803219 107.817383,35.1452637 C108.299807,35.2102054 108.777586,35.214844 109.250732,35.1591797 C109.723879,35.1035153 110.350094,35.033936 111.129395,34.9504395 C111.908695,34.8669429 112.585935,34.8251953 113.161133,34.8251953 C114.014653,34.8251953 114.979487,34.8901361 116.055664,35.0200195 C116.38965,35.0942387 117.076167,35.3540017 118.115234,35.7993164 C118.133789,35.7993164 118.156982,35.8085937 118.184814,35.8271484 C118.212647,35.8457032 118.23584,35.873535 118.254395,35.9106445 C118.272949,35.9477541 118.296142,35.9848631 118.323975,36.0219727 C118.351807,36.0590822 118.375,36.086914 118.393555,36.1054688 C118.356445,36.1240235 118.314697,36.142578 118.268311,36.1611328 C118.221924,36.1796876 118.184815,36.1936035 118.156982,36.2028809 C118.12915,36.2121582 118.09668,36.2167969 118.05957,36.2167969 C117.558591,36.2167969 117.159669,36.4023419 116.862793,36.7734375 C116.862793,36.8476566 116.788575,36.8847656 116.640137,36.8847656 L116.361816,36.8847656 C115.860837,36.8847656 115.304202,37.0053699 114.691895,37.246582 C114.265135,37.4321298 113.829104,37.5249023 113.383789,37.5249023 C112.381831,37.6176762 111.314947,37.9609345 110.183105,38.5546875 C109.311031,38.9814474 108.197761,39.4916963 106.843262,40.0854492 C106.713378,40.1596683 106.495363,40.2617181 106.189209,40.3916016 C105.883055,40.521485 105.66504,40.6235348 105.535156,40.6977539 C105.23828,40.9018565 105.062012,41.0410153 105.006348,41.1152344 C104.468259,41.653323 103.401375,42.4326121 101.805664,43.453125 L101.47168,43.6479492 C101.490234,43.6479492 101.527343,43.638672 101.583008,43.6201172 C101.731446,43.6015624 101.791748,43.606201 101.763916,43.6340332 C101.736084,43.6618654 101.638673,43.7314448 101.47168,43.8427734 C101.360351,43.8984378 101.091311,44.0468738 100.664551,44.2880859 C100.237791,44.5292981 99.9038098,44.7055658 99.6625977,44.8168945 C99.2915021,44.9653328 98.6792035,45.1508778 97.8256836,45.3735352 C97.7514645,45.3735352 97.695801,45.3549807 97.6586914,45.3178711 C96.9721645,44.8540016 96.5917972,44.5942386 96.5175781,44.5385742 C96.4248042,44.4829099 96.2949227,44.2324241 96.1279297,43.7871094 C96.1093749,43.6757807 96.05835,43.4995129 95.9748535,43.2583008 C95.891357,43.0170886 95.8403321,42.8315436 95.8217773,42.7016602 C95.8217773,42.6459958 95.826416,42.5532233 95.8356934,42.4233398 C95.8449707,42.2934564 95.8496094,42.1682135 95.8496094,42.0476074 C95.8496094,41.9270014 95.8403321,41.820313 95.8217773,41.7275391 Z M121.566406,16.8178711 C121.584961,16.7993163 121.617431,16.7622073 121.663818,16.706543 C121.710205,16.6508786 121.742676,16.6137696 121.76123,16.5952148 C121.76123,16.5395505 121.784424,16.446778 121.830811,16.3168945 C121.877197,16.1870111 121.909668,16.0942386 121.928223,16.0385742 C122.002442,15.8344716 122.132323,15.5839859 122.317871,15.2871094 C122.317871,15.2499998 122.345703,15.1989749 122.401367,15.1340332 C122.457032,15.0690915 122.484863,15.0273438 122.484863,15.0087891 C122.484863,14.9160152 122.508056,14.8139654 122.554443,14.7026367 C122.60083,14.591308 122.67041,14.4707038 122.763184,14.3408203 C122.855957,14.2109369 122.920898,14.1088871 122.958008,14.034668 L123.291992,13.5336914 C123.458985,13.3666984 123.570312,13.2832031 123.625977,13.2832031 C123.700196,13.2460936 123.760498,13.2275391 123.806885,13.2275391 C123.853272,13.2275391 123.885742,13.2460936 123.904297,13.2832031 C123.904297,13.3945318 123.987792,13.4130863 124.154785,13.3388672 C124.247559,13.3017576 124.3125,13.2832031 124.349609,13.2832031 L124.377441,13.2832031 C124.562989,13.375977 124.804198,13.4594723 125.101074,13.5336914 C125.490725,13.7006844 125.796874,13.979002 126.019531,14.3686523 C125.963867,14.4243167 125.903565,14.5078119 125.838623,14.6191406 C125.773681,14.7304693 125.722656,14.8046873 125.685547,14.8417969 C125.518554,15.083009 125.425781,15.2499995 125.407227,15.3427734 C125.407227,15.4541021 125.370118,15.5468746 125.295898,15.6210938 C125.203125,15.7138677 125.008302,15.9457989 124.711426,16.3168945 C124.562988,16.5209971 124.275393,16.6694331 123.848633,16.762207 C123.755859,16.7065427 123.625977,16.7622062 123.458984,16.9291992 C123.310546,17.0219731 123.16211,17.0683594 123.013672,17.0683594 C122.902343,17.0683594 122.781739,17.0405276 122.651855,16.9848633 C122.540527,16.9106442 122.392091,16.8735352 122.206543,16.8735352 C121.928221,16.8735352 121.714844,16.8549807 121.566406,16.8178711 Z M165.652344,23.9985352 C165.652344,24.1655282 165.735839,24.3046869 165.902832,24.4160156 C166.199709,24.6015634 166.366699,24.7314449 166.403809,24.8056641 C166.570802,25.0097666 166.858396,25.1118164 167.266602,25.1118164 C167.37793,25.1118164 167.507812,25.1025392 167.65625,25.0839844 C167.990236,24.9912105 168.296385,24.6943384 168.574707,24.1933594 C168.686036,23.8964829 168.848388,23.5578632 169.061768,23.1774902 C169.275148,22.7971172 169.437499,22.4306658 169.548828,22.078125 C169.715821,21.6513651 169.799316,21.317384 169.799316,21.0761719 C169.799316,20.8906241 169.762207,20.7607426 169.687988,20.6865234 C169.57666,20.5751948 169.428224,20.5195312 169.242676,20.5195312 L169.15918,20.5195312 C169.029296,20.5195312 168.908692,20.5380858 168.797363,20.5751953 C168.426268,20.686524 168.083009,20.8627918 167.767578,21.1040039 C167.61914,21.2153326 167.466065,21.3498527 167.30835,21.5075684 C167.150634,21.665284 167.025391,21.8044428 166.932617,21.9250488 C166.839843,22.0456549 166.709962,22.217284 166.542969,22.4399414 C166.375976,22.6625988 166.255371,22.820312 166.181152,22.9130859 C165.995605,23.1914076 165.865723,23.4047844 165.791504,23.5532227 C165.69873,23.7202157 165.652344,23.8686517 165.652344,23.9985352 Z" id="WantLine" fill="#FFFFFF"></path>
    </g>
</svg>