<?xml version="1.0" encoding="UTF-8"?>
<svg width="198px" height="162px" viewBox="0 0 198 162" version="1.1" xmlns="http://www.w3.org/2000/svg" xmlns:xlink="http://www.w3.org/1999/xlink">
    <!-- Generator: Sketch 39.1 (31720) - http://www.bohemiancoding.com/sketch -->
    <title>wechat</title>
    <desc>Created with Sketch.</desc>
    <defs></defs>
    <g id="Page-1" stroke="none" stroke-width="1" fill="none" fill-rule="evenodd">
        <path d="M134.29282,48.79838 C136.56218,48.79838 138.80794,48.96086 141.03452,49.2101 C134.97558,20.99804 104.8144,0.03664 70.38452,0.03664 C31.89164,0.03664 0.36274,26.26866 0.36274,59.58348 C0.36274,78.82044 10.85246,94.60434 28.3821,106.85562 L21.37876,127.91814 L45.85716,115.64526 C54.61558,117.37608 61.6437,119.16128 70.38414,119.16128 C72.58154,119.16128 74.75956,119.05156 76.92118,118.88226 C75.55366,114.20384 74.75976,109.30136 74.75976,104.2102 C74.76014,73.62036 101.03,48.79838 134.29282,48.79838 L134.29282,48.79838 Z M96.14952,28.39182 C102.12832,28.39182 106.97482,33.23854 106.97482,39.21748 C106.97482,45.19642 102.1283,50.04294 96.14952,50.04294 C90.17032,50.04294 85.32382,45.19622 85.32382,39.21748 C85.32382,33.23874 90.17072,28.39182 96.14952,28.39182 L96.14952,28.39182 Z M47.15772,50.2612 C41.17892,50.2612 36.33202,45.41448 36.33202,39.43574 C36.33202,33.457 41.17894,28.61028 47.15772,28.61028 C53.13692,28.61028 57.98362,33.457 57.98362,39.43574 C57.98362,45.41428 53.13692,50.2612 47.15772,50.2612 L47.15772,50.2612 Z M197.70702,103.59684 C197.70702,75.60262 169.69466,52.7833 138.2313,52.7833 C104.91472,52.7833 78.67564,75.60262 78.67564,103.59684 C78.67564,131.63942 104.91472,154.40898 138.2313,154.40898 C145.20346,154.40898 152.23758,152.64898 159.24092,150.89356 L178.44808,161.41342 L173.18064,143.91488 C187.2363,133.37064 197.70702,119.38852 197.70702,103.59684 L197.70702,103.59684 Z M119.93456,95.74916 C115.67688,95.74916 112.22568,92.2973 112.22568,88.03998 C112.22568,83.78226 115.67708,80.3312 119.93456,80.3312 C124.19204,80.3312 127.64344,83.78246 127.64344,88.03998 C127.64386,92.2975 124.19206,95.74916 119.93456,95.74916 L119.93456,95.74916 Z M158.42784,96.18646 C154.16976,96.18646 150.71876,92.7348 150.71876,88.47768 C150.71876,84.21976 154.16996,80.7689 158.42784,80.7689 C162.68532,80.7689 166.13672,84.21996 166.13672,88.47768 C166.13694,92.7348 162.68534,96.18646 158.42784,96.18646 L158.42784,96.18646 Z" id="wechat" fill="#000000"></path>
    </g>
</svg>