<?xml version="1.0" encoding="UTF-8"?>
<svg width="201px" height="164px" viewBox="0 0 201 164" version="1.1" xmlns="http://www.w3.org/2000/svg" xmlns:xlink="http://www.w3.org/1999/xlink">
    <!-- Generator: Sketch 39.1 (31720) - http://www.bohemiancoding.com/sketch -->
    <title>weibo</title>
    <desc>Created with Sketch.</desc>
    <defs></defs>
    <g id="Page-1" stroke="none" stroke-width="1" fill="none" fill-rule="evenodd">
        <path d="M197.7524,70.1938 L197.7524,70.2244 C196.4442,74.2592 192.1158,76.4722 188.0934,75.164 C184.0586,73.8556 181.8456,69.5274 183.154,65.4806 L183.1416,65.4746 C187.152,53.0524 184.6088,38.8818 175.2678,28.4892 C165.9144,18.0966 152.1228,14.123 139.3828,16.8372 C135.2378,17.7236 131.1542,15.0706 130.274,10.9196 C129.3936,6.7688 132.0346,2.6788 136.1792,1.7924 L136.1792,1.7924 C154.0912,-2.0284 173.507,3.547 186.6628,18.176 C199.8186,32.7926 203.3642,52.7158 197.7524,70.1938 L197.7524,70.1938 Z M144.6156,41.443 L144.6156,41.4368 C141.0578,42.2132 137.5488,39.9268 136.7906,36.3568 C136.0204,32.7806 138.3068,29.2532 141.8646,28.495 C150.5944,26.6304 160.0578,29.3386 166.4522,36.4606 C172.8712,43.5888 174.5828,53.2904 171.8442,61.8064 C170.7192,65.291 167.0024,67.186 163.5302,66.0734 C160.0578,64.9486 158.1626,61.2072 159.2874,57.735 L159.2752,57.735 C160.6202,53.5658 159.7764,48.8218 156.6464,45.3372 C153.5166,41.8586 148.8828,40.5444 144.6156,41.443 L144.6156,41.443 Z M102.5746,53.584 C122.9624,45.0192 140.7642,44.5118 147.269,53.8346 C150.729,58.7986 150.3988,65.7616 147.2078,73.8312 C145.7284,77.548 147.6602,78.1288 150.4844,78.9786 C161.9652,82.5488 174.7664,91.1928 174.7664,106.415 C174.7664,131.6264 138.5146,163.3664 84.0392,163.3664 C42.4812,163.3664 0,143.1682 0,109.9486 C0,92.5746 10.9734,72.4924 29.8696,53.5352 C55.099,28.2384 84.5224,16.7148 95.5874,27.8226 C100.4718,32.7072 100.9426,41.1862 97.8066,51.2976 C96.168,56.39 102.5746,53.5716 102.5746,53.584 L102.5746,53.584 Z M76.361,72.3884 C43.2024,75.6774 18.0524,96.0468 20.2104,117.8712 C22.3622,139.7078 50.9908,154.7464 84.1492,151.4576 C117.3138,148.1686 142.4516,127.8114 140.2998,105.9624 C138.1478,84.138 109.5254,69.0994 76.361,72.3884 L76.361,72.3884 Z M62.7038,142.0798 C46.7604,136.92 40.0114,121.1356 46.9926,106.9038 C53.8456,92.9656 71.6842,85.0794 87.4626,89.1998 C103.7972,93.43 112.1296,108.8846 105.4542,123.8866 C98.6866,139.2432 79.222,147.4228 62.7038,142.0798 L62.7038,142.0798 Z M71.7086,112.186 C66.5734,110.034 59.9344,112.2472 56.7678,117.2354 C53.5584,122.2362 55.0682,128.2028 60.1668,130.5258 C65.3386,132.8976 72.204,130.648 75.4134,125.513 C78.5616,120.3288 76.905,114.4112 71.7086,112.186 L71.7086,112.186 Z M84.3694,106.9286 C82.3948,106.146 79.9312,107.0874 78.7758,109.0316 C77.657,110.9878 78.2746,113.213 80.249,114.0322 C82.2604,114.8636 84.8218,113.8978 85.9832,111.917 C87.0898,109.9118 86.3684,107.6622 84.3694,106.9286 L84.3694,106.9286 Z" id="weibo" fill="#000000"></path>
    </g>
</svg>